<?xml version="1.0" standalone="no"?>
<!DOCTYPE svg PUBLIC "-//W3C//DTD SVG 20010904//EN"
 "http://www.w3.org/TR/2001/REC-SVG-20010904/DTD/svg10.dtd">
<svg version="1.0" xmlns="http://www.w3.org/2000/svg"
 width="340.000000pt" height="228.000000pt" viewBox="0 0 340.000000 228.000000"
 preserveAspectRatio="xMidYMid meet">
<metadata>
Created by potrace 1.16, written by Peter Selinger 2001-2019
</metadata>
<g transform="translate(0.000000,228.000000) scale(0.100000,-0.100000)"
fill="#000000" stroke="none">
<path d="M1678 2185 c-4 -4 -231 -86 -318 -115 -14 -5 -77 -27 -140 -50 -63
-22 -140 -49 -170 -60 -30 -10 -100 -35 -155 -55 -55 -20 -131 -47 -170 -60
-38 -13 -108 -38 -155 -55 -47 -18 -96 -36 -110 -40 -14 -5 -90 -32 -170 -60
-80 -29 -153 -54 -162 -57 -19 -6 -31 -30 -22 -44 10 -16 38 -10 179 42 77 28
253 91 390 139 239 84 582 205 878 311 76 27 143 49 149 49 6 0 55 -16 107
-35 53 -19 213 -76 356 -126 297 -104 778 -275 969 -343 71 -26 137 -45 145
-44 9 2 16 12 16 23 0 22 -33 36 -270 117 -82 28 -161 55 -175 61 -35 14 -202
74 -285 102 -38 13 -115 40 -170 60 -55 20 -149 54 -210 75 -60 21 -175 62
-255 90 -80 29 -155 54 -168 57 -12 3 -25 9 -28 14 -5 10 -47 12 -56 4z"/>
<path d="M832 1584 c-16 -8 -42 -58 -42 -83 0 -11 12 -33 26 -50 52 -62 154
-29 154 49 0 54 -25 81 -80 86 -25 2 -51 1 -58 -2z"/>
<path d="M1626 1449 c-34 -40 -33 -64 4 -101 26 -25 36 -29 63 -24 76 14 93
107 26 141 -42 22 -64 18 -93 -16z"/>
<path d="M577 1383 c125 -123 183 -238 186 -370 l2 -75 -57 -32 c-32 -17 -58
-35 -58 -39 0 -5 21 -8 48 -7 26 1 50 1 53 1 7 -1 -2 -47 -22 -124 -7 -27 -15
-37 -24 -33 -18 7 -26 -6 -15 -24 13 -21 -6 -48 -37 -52 -20 -2 -29 -9 -31
-25 -3 -17 -10 -23 -28 -23 -13 0 -24 3 -24 8 0 4 -13 15 -30 24 -24 13 -35
14 -59 5 -27 -10 -33 -8 -75 27 -26 21 -46 31 -46 24 0 -17 93 -91 203 -162
77 -50 87 -60 82 -79 -4 -12 -29 -87 -57 -167 -56 -162 -66 -200 -50 -185 6 6
39 91 72 190 176 519 205 663 165 833 -27 115 -105 239 -198 312 -77 62 -77
47 0 -27z"/>
<path d="M1300 1386 c0 -2 25 -23 56 -46 67 -51 117 -102 150 -152 13 -21 24
-39 24 -41 0 -2 -35 -7 -77 -10 -115 -9 -251 -34 -360 -67 -54 -16 -99 -27
-102 -25 -7 8 28 124 53 174 14 26 45 70 71 99 26 29 44 56 40 60 -13 13 -95
-90 -135 -171 -65 -133 -73 -259 -29 -442 24 -95 137 -460 180 -580 17 -47 35
-85 41 -85 10 0 5 23 -18 79 -21 49 -18 62 9 56 13 -4 57 -12 98 -19 l74 -13
-3 -34 c-2 -22 0 -31 6 -24 24 25 171 484 207 649 42 189 -8 366 -138 497 -61
61 -147 117 -147 95z m266 -461 c-13 -20 -15 -30 -7 -38 16 -16 14 -44 -9
-139 -37 -155 -73 -253 -96 -262 -8 -3 -14 0 -14 6 0 6 -3 8 -6 5 -10 -10 -67
41 -86 77 -9 17 -17 44 -18 59 0 16 -10 50 -21 78 -13 29 -19 60 -16 76 7 39
-7 68 -45 91 -29 18 -39 19 -73 11 -90 -23 -85 -23 -85 3 0 65 42 76 264 68
99 -3 157 -1 175 6 20 9 29 9 40 -2 12 -11 12 -17 -3 -39z"/>
<path d="M1979 1355 c-52 -34 -141 -137 -173 -199 -91 -179 -76 -304 96 -821
38 -113 46 -127 54 -99 4 14 21 27 52 37 77 26 179 64 201 76 12 7 22 9 22 6
1 -3 2 -9 3 -14 5 -35 20 -2 64 136 87 270 95 305 90 408 -4 106 -30 171 -99
249 -46 52 -127 112 -137 101 -4 -4 4 -14 18 -23 48 -30 146 -137 167 -183 23
-49 40 -119 28 -119 -4 0 -53 22 -110 49 -99 48 -235 97 -377 137 -38 10 -68
23 -68 28 0 35 120 172 205 233 41 30 10 28 -36 -2z m-21 -304 c13 -7 16 -20
14 -55 -4 -43 -6 -46 -42 -56 -21 -6 -43 -17 -50 -25 -15 -18 -44 -19 -58 -2
-5 6 -11 28 -13 47 -2 19 -10 43 -18 53 -25 30 5 44 97 46 29 0 61 -3 70 -8z
m405 -180 c5 -5 5 -30 2 -56 -6 -36 -13 -48 -30 -55 -13 -5 -26 -13 -30 -19
-4 -7 -13 -6 -28 4 -22 14 -83 15 -106 1 -21 -14 -11 -34 22 -41 17 -3 56 -9
86 -12 l53 -5 -6 -31 c-3 -17 -20 -75 -37 -129 -26 -86 -32 -98 -45 -87 -9 7
-13 21 -11 30 3 10 -1 35 -8 56 -13 38 -14 38 -71 41 -69 4 -84 14 -84 55 0
21 9 39 33 60 20 19 27 31 20 34 -7 3 -13 9 -13 14 0 10 56 68 68 70 4 1 21 2
39 4 50 4 63 12 63 40 0 20 -4 26 -17 23 -10 -2 -17 -11 -17 -21 2 -18 -22
-22 -45 -8 -11 7 -7 14 20 31 28 17 43 20 84 15 28 -3 54 -10 58 -14z"/>
<path d="M2639 1163 c-75 -70 -120 -168 -126 -275 -4 -70 0 -100 26 -198 60
-230 131 -428 131 -368 0 8 -16 60 -35 117 -19 56 -35 110 -35 119 1 9 21 32
46 50 l45 34 42 -28 c36 -23 162 -112 420 -296 78 -56 102 -68 95 -47 -2 8
-49 50 -104 94 -109 89 -196 195 -212 257 -25 99 53 211 241 344 74 54 92 74
64 74 -14 0 -196 -124 -272 -185 -36 -28 -95 -70 -219 -156 -33 -22 -43 -25
-59 -15 -15 8 -21 8 -24 -1 -2 -7 -21 -17 -40 -24 -32 -10 -38 -9 -49 6 -7 10
-16 38 -19 64 -4 25 -11 56 -17 67 -6 12 -9 55 -6 95 5 97 37 166 118 252 71
76 64 90 -11 20z"/>
<path d="M830 648 c-25 -41 -78 -199 -130 -388 -42 -151 -47 -180 -30 -180 6
0 10 7 10 17 0 22 70 276 79 285 3 4 65 -17 136 -47 l130 -54 30 -84 c30 -86
45 -114 45 -85 0 24 -107 330 -150 431 -64 147 -84 164 -120 105z"/>
<path d="M1638 658 c-22 -34 -64 -153 -109 -312 -21 -76 -39 -142 -39 -146 0
-10 140 -3 240 12 41 6 87 10 103 10 15 0 27 2 27 6 0 19 -114 325 -143 382
-35 71 -56 83 -79 48z m103 -169 c22 -53 39 -101 39 -106 0 -14 -45 -43 -65
-43 -9 0 -15 -6 -13 -12 4 -19 -21 -58 -37 -58 -17 0 -25 25 -26 76 -1 71 -10
114 -25 114 -26 0 -9 82 32 162 l16 30 20 -33 c12 -19 38 -77 59 -130z"/>
<path d="M2422 658 c-20 -25 -101 -269 -102 -308 0 -22 16 0 29 40 9 28 25 43
77 73 36 21 72 36 79 33 7 -2 27 -48 45 -100 27 -82 50 -127 50 -99 0 21 -77
231 -109 295 -37 75 -51 88 -69 66z"/>
</g>
</svg>
