<svg version="1.0" xmlns="http://www.w3.org/2000/svg"
 width="1833.000000pt" height="2187.000000pt" viewBox="0 0 1833.000000 2187.000000"
 preserveAspectRatio="xMidYMid meet">
<g transform="translate(0.000000,2187.000000) scale(0.100000,-0.100000)"
fill="#552dde" stroke="none">
<path d="M7521 21258 c-6 -10 -9 -24 -5 -29 10 -17 5 -591 -6 -604 -5 -6 -8
-137 -7 -310 2 -232 0 -308 -11 -334 -10 -25 -13 -95 -11 -287 1 -170 -2 -258
-9 -267 -6 -7 -9 -22 -6 -33 3 -13 -5 -36 -20 -59 -15 -21 -29 -49 -32 -61 -3
-12 -12 -25 -20 -28 -8 -3 -14 -13 -14 -23 0 -20 -59 -143 -76 -158 -7 -5 -15
-23 -19 -40 -3 -16 -17 -44 -31 -62 -13 -17 -24 -40 -24 -51 0 -11 -6 -24 -12
-30 -7 -6 -22 -34 -33 -62 -11 -29 -26 -55 -32 -57 -7 -3 -13 -13 -13 -22 0
-9 -6 -25 -14 -36 -7 -11 -17 -31 -21 -45 -4 -14 -18 -39 -31 -57 -13 -17 -24
-40 -24 -50 0 -11 -4 -23 -9 -29 -16 -16 -51 -84 -51 -98 0 -8 -7 -16 -15 -20
-8 -3 -15 -15 -15 -27 0 -12 -13 -44 -30 -71 -16 -26 -30 -52 -30 -57 0 -5 -7
-14 -15 -21 -8 -7 -15 -19 -15 -28 0 -20 -41 -102 -52 -102 -4 0 -8 -9 -8 -19
0 -11 -7 -26 -15 -35 -8 -8 -15 -20 -15 -27 0 -20 -41 -99 -51 -99 -5 0 -9
-10 -9 -22 0 -12 -7 -29 -15 -38 -8 -9 -16 -27 -17 -40 -2 -13 -15 -37 -30
-54 -16 -17 -28 -40 -28 -51 0 -12 -4 -25 -9 -30 -16 -17 -51 -85 -51 -99 0
-8 -7 -16 -15 -20 -8 -3 -15 -13 -15 -23 0 -10 -14 -42 -30 -72 -17 -30 -30
-60 -30 -67 0 -6 -6 -14 -14 -17 -7 -3 -16 -19 -19 -36 -4 -17 -18 -48 -32
-71 -14 -22 -25 -47 -25 -55 0 -9 -6 -18 -14 -21 -8 -3 -16 -17 -19 -32 -3
-15 -17 -44 -31 -65 -14 -21 -26 -45 -26 -53 0 -9 -9 -27 -20 -41 -11 -14 -20
-32 -20 -39 0 -18 -22 -57 -37 -67 -7 -4 -13 -19 -13 -33 0 -14 -8 -34 -18
-45 -11 -11 -25 -37 -32 -59 -7 -21 -19 -41 -26 -44 -8 -3 -14 -12 -14 -21 0
-19 -68 -152 -81 -161 -5 -3 -9 -13 -9 -22 0 -9 -7 -30 -16 -47 -51 -95 -84
-161 -84 -169 0 -5 -11 -24 -25 -42 -14 -18 -25 -41 -25 -52 0 -11 -7 -25 -15
-32 -8 -7 -15 -17 -15 -22 0 -18 -34 -83 -47 -91 -7 -4 -13 -15 -13 -25 0 -21
-61 -145 -77 -155 -7 -4 -13 -15 -13 -24 0 -16 -54 -126 -76 -153 -6 -8 -15
-28 -18 -45 -4 -16 -18 -44 -32 -62 -13 -17 -24 -40 -24 -51 0 -11 -7 -25 -15
-32 -8 -7 -15 -17 -15 -22 0 -18 -41 -98 -50 -98 -6 0 -10 -9 -10 -21 0 -11
-9 -32 -20 -46 -11 -14 -20 -32 -20 -39 0 -18 -22 -57 -37 -67 -7 -4 -13 -17
-13 -27 0 -11 -13 -42 -30 -70 -16 -28 -30 -55 -30 -59 0 -5 -7 -14 -15 -21
-8 -7 -15 -22 -15 -34 -1 -11 -12 -39 -25 -61 -14 -22 -29 -50 -34 -62 -5 -11
-15 -24 -20 -28 -6 -3 -11 -16 -11 -29 0 -13 -13 -42 -30 -64 -16 -23 -30 -51
-30 -62 0 -11 -7 -23 -15 -26 -8 -4 -15 -14 -15 -23 0 -10 -7 -26 -15 -37 -8
-10 -15 -34 -15 -51 0 -18 -4 -33 -8 -33 -12 0 -82 -144 -82 -168 0 -12 -4
-23 -9 -27 -14 -8 -38 -59 -46 -97 -9 -40 -44 -108 -56 -108 -5 0 -9 -14 -9
-30 0 -17 -13 -56 -30 -87 -16 -31 -30 -64 -30 -74 0 -22 -38 -59 -61 -59 -27
0 -39 23 -45 91 -4 37 -13 67 -20 72 -8 4 -14 21 -14 36 0 16 -7 31 -15 35 -8
3 -15 16 -15 30 0 14 -4 27 -9 30 -4 3 -14 32 -20 65 -7 33 -16 63 -21 66 -6
4 -10 19 -10 35 0 15 -7 30 -15 34 -8 3 -15 17 -15 31 0 14 -7 28 -15 31 -11
4 -15 21 -15 55 0 35 -4 51 -15 55 -8 4 -15 19 -15 35 0 15 -6 32 -13 36 -18
11 -47 92 -47 130 0 21 -10 43 -30 65 -20 21 -30 43 -30 63 0 17 -7 40 -15 51
-8 10 -15 32 -15 47 0 15 -7 30 -15 33 -8 4 -15 14 -15 24 0 10 -7 23 -15 30
-8 7 -15 27 -15 45 0 18 -7 38 -15 45 -8 7 -15 25 -15 41 0 15 -7 34 -15 43
-8 8 -15 26 -15 39 0 14 -7 30 -15 37 -8 7 -15 25 -15 41 0 15 -7 34 -15 43
-8 8 -15 24 -15 36 0 11 -7 23 -15 26 -8 4 -15 16 -15 29 0 12 -7 28 -15 35
-9 8 -15 29 -15 56 0 34 -6 50 -30 76 -17 18 -30 44 -30 58 0 14 -7 38 -15 54
-8 15 -15 39 -15 52 0 14 -7 27 -15 30 -8 4 -15 14 -15 24 0 10 -6 23 -14 30
-8 6 -16 25 -18 42 -4 37 -23 48 -31 17 -9 -33 -31 -17 -35 25 -1 24 1 35 8
31 6 -3 8 -11 5 -16 -12 -19 6 -28 25 -11 13 11 16 20 10 26 -6 6 -10 18 -10
27 0 9 -7 22 -15 29 -8 7 -15 26 -15 42 0 16 -6 31 -15 34 -8 4 -18 24 -21 45
-4 22 -11 42 -15 45 -5 3 -9 16 -9 29 0 12 -7 25 -15 29 -9 3 -15 18 -15 35 0
17 -7 34 -15 39 -10 5 -17 24 -18 52 -1 32 -9 52 -29 74 -16 17 -28 42 -28 56
0 15 -7 35 -15 46 -8 10 -15 34 -15 52 0 20 -6 35 -15 38 -9 4 -15 19 -15 35
0 17 -6 32 -15 35 -8 4 -15 14 -15 23 0 9 -5 22 -11 28 -7 7 -13 28 -15 49 -2
20 -10 44 -19 54 -8 9 -15 29 -15 44 0 14 -7 29 -15 32 -8 3 -17 21 -21 40 -3
19 -10 37 -15 40 -5 3 -9 18 -9 34 0 15 -7 30 -15 34 -8 3 -15 15 -15 27 0 13
-7 30 -15 39 -8 9 -16 36 -19 59 -2 28 -13 53 -30 73 -14 17 -26 39 -26 49 0
11 -9 38 -21 60 -11 23 -18 47 -15 54 3 8 -2 19 -10 25 -8 7 -14 26 -14 42 0
16 -6 31 -15 34 -8 4 -15 15 -15 25 0 11 -6 22 -14 25 -8 3 -13 20 -13 45 0
22 -7 47 -17 57 -9 10 -16 31 -16 45 0 15 -4 27 -10 27 -13 0 -50 88 -50 120
0 16 -7 30 -15 34 -8 3 -15 16 -15 29 0 14 -6 30 -14 36 -15 12 -30 65 -27 94
1 9 -3 17 -8 17 -6 0 -11 7 -11 15 0 9 -7 18 -15 21 -8 4 -15 18 -15 34 0 16
-7 35 -15 44 -8 8 -15 31 -15 51 0 22 -6 38 -15 41 -9 4 -15 19 -15 40 0 22
-6 37 -15 40 -8 4 -15 15 -15 25 0 11 -7 22 -15 25 -10 4 -15 20 -15 44 0 21
-7 45 -15 54 -8 8 -15 26 -15 40 0 14 -13 39 -30 58 -24 26 -30 41 -30 79 0
32 -5 49 -15 53 -8 3 -15 17 -15 31 0 14 -7 28 -15 31 -8 4 -15 17 -15 29 0
13 -5 27 -11 31 -6 3 -9 15 -6 25 3 10 1 22 -4 25 -5 3 -9 19 -9 35 0 17 -6
32 -15 35 -8 4 -15 12 -15 19 0 7 -7 18 -15 25 -8 7 -15 27 -15 46 0 18 -7 39
-15 48 -8 8 -15 28 -15 44 0 17 -6 32 -15 36 -8 3 -15 15 -15 26 0 11 -7 23
-15 26 -9 4 -15 19 -15 38 0 18 -7 41 -15 52 -8 10 -15 34 -15 52 0 17 -4 32
-9 32 -18 0 -51 72 -51 111 0 28 -4 39 -15 39 -10 0 -15 10 -15 30 0 18 -6 33
-15 36 -9 4 -15 19 -15 36 0 21 -6 31 -20 35 -11 3 -17 10 -13 16 11 17 3 81
-10 92 -25 20 -47 65 -47 93 0 16 -7 35 -15 42 -8 7 -15 25 -15 40 0 15 -7 33
-15 40 -8 7 -15 20 -15 30 0 40 -30 50 -152 50 -94 0 -117 3 -122 15 -4 12
-33 15 -170 15 -136 0 -165 3 -170 15 -5 13 -45 15 -280 15 -202 0 -277 -3
-282 -12 -4 -6 -2 -14 4 -16 8 -2 10 -21 7 -55 -10 -101 -12 -275 -4 -288 5
-8 2 -20 -7 -30 -13 -14 -15 -64 -14 -326 0 -267 -2 -312 -15 -323 -13 -11
-15 -56 -15 -316 0 -271 -2 -304 -16 -312 -13 -7 -15 -16 -8 -38 5 -16 7 -144
4 -284 -3 -140 -2 -262 2 -270 3 -8 0 -24 -8 -35 -11 -15 -14 -75 -13 -319 1
-212 -2 -301 -10 -304 -8 -3 -11 -97 -11 -318 0 -270 -2 -315 -15 -320 -13 -5
-15 -50 -15 -315 0 -278 -2 -309 -17 -317 -15 -9 -15 -11 1 -27 12 -13 15 -26
11 -44 -4 -14 -7 -143 -7 -286 0 -230 -2 -261 -16 -271 -15 -10 -17 -38 -16
-240 1 -126 3 -233 4 -239 2 -5 0 -26 -4 -46 -5 -24 -3 -45 4 -60 10 -19 10
-24 -4 -34 -14 -11 -16 -48 -16 -333 0 -275 -2 -321 -15 -326 -13 -5 -15 -48
-15 -302 0 -264 -2 -298 -17 -309 -9 -7 -13 -17 -8 -25 10 -16 12 -590 3 -597
-5 -2 -8 -28 -8 -57 0 -38 -6 -60 -22 -82 -40 -54 -297 -304 -312 -304 -8 0
-27 -16 -42 -35 -31 -41 -47 -37 -38 11 5 25 3 34 -7 34 -10 0 -14 -18 -15
-70 l-1 -70 166 0 c108 0 171 -4 178 -11 7 -7 64 -10 161 -10 123 2 153 -1
165 -14 11 -11 36 -15 88 -15 l73 0 83 78 c46 42 145 136 219 208 l134 131 0
232 c0 197 2 232 15 237 13 5 15 49 15 309 0 219 3 304 11 307 9 3 13 173 16
638 4 537 7 636 19 643 12 7 14 59 14 313 0 262 2 305 15 310 13 5 15 51 15
325 0 206 4 319 10 319 6 0 10 66 10 178 0 98 3 355 7 571 l6 392 31 -3 c26
-3 31 -8 38 -41 4 -21 15 -48 23 -60 8 -12 15 -33 15 -48 0 -15 6 -32 14 -38
14 -12 46 -98 46 -125 0 -9 3 -16 8 -16 13 0 42 -60 48 -101 4 -21 13 -44 20
-50 8 -6 14 -24 14 -40 0 -16 4 -29 8 -29 10 0 42 -70 42 -91 0 -8 9 -27 20
-44 11 -16 20 -40 20 -53 0 -12 11 -40 25 -62 14 -22 25 -48 25 -58 0 -10 9
-35 20 -57 11 -22 20 -46 20 -54 0 -8 6 -22 14 -30 15 -17 46 -102 46 -127 0
-8 7 -17 15 -20 8 -4 15 -16 15 -29 0 -12 11 -43 25 -69 14 -26 23 -51 21 -55
-3 -3 6 -28 20 -55 13 -26 24 -54 24 -61 0 -8 8 -29 19 -47 10 -18 25 -55 32
-82 8 -27 20 -51 27 -53 6 -3 12 -18 12 -33 0 -15 7 -33 15 -40 8 -7 15 -21
15 -31 0 -24 30 -100 47 -117 7 -7 13 -22 13 -32 0 -10 7 -31 15 -46 8 -16 15
-41 15 -56 0 -14 4 -28 8 -30 12 -5 52 -86 52 -106 0 -9 7 -26 15 -36 8 -11
15 -27 15 -36 0 -10 11 -38 25 -64 14 -26 25 -54 25 -62 0 -8 9 -31 20 -51 11
-21 20 -50 20 -65 0 -16 3 -28 8 -28 13 0 42 -60 48 -101 4 -21 13 -44 20 -50
8 -6 14 -24 14 -39 0 -16 7 -30 15 -34 8 -3 15 -14 15 -25 0 -11 5 -23 10 -26
6 -3 10 -16 10 -28 0 -12 9 -35 20 -52 11 -16 20 -40 20 -53 0 -12 11 -39 24
-60 13 -21 27 -53 31 -72 4 -19 13 -45 21 -57 8 -12 14 -31 14 -41 0 -11 6
-25 13 -31 8 -6 22 -39 32 -73 10 -35 24 -70 32 -79 7 -8 13 -22 13 -31 0 -8
11 -35 23 -59 13 -24 22 -49 20 -55 -2 -7 8 -32 22 -57 14 -25 25 -54 25 -64
0 -10 7 -26 15 -37 7 -10 22 -44 31 -75 10 -31 24 -62 31 -69 7 -7 13 -24 13
-36 0 -13 7 -29 15 -36 8 -7 15 -21 15 -31 0 -24 30 -100 47 -117 7 -7 13 -23
13 -35 1 -12 7 -33 15 -47 8 -14 14 -37 15 -52 0 -15 4 -29 9 -32 13 -9 51
-84 51 -104 0 -9 7 -26 15 -36 8 -11 15 -32 15 -48 0 -15 5 -28 10 -28 6 0 10
-6 10 -14 0 -7 9 -25 21 -40 11 -14 18 -30 14 -35 -3 -6 4 -27 15 -48 11 -21
20 -48 20 -61 0 -13 11 -38 25 -56 13 -17 27 -51 31 -74 3 -23 13 -47 20 -53
8 -6 14 -24 14 -39 0 -16 7 -30 15 -34 8 -3 15 -14 15 -25 0 -11 5 -23 10 -26
6 -3 10 -16 10 -28 0 -12 9 -35 20 -52 11 -16 20 -40 20 -53 0 -12 11 -40 25
-62 14 -22 25 -48 25 -58 0 -10 9 -35 20 -57 11 -22 20 -47 20 -56 0 -9 6 -22
13 -28 8 -6 22 -39 32 -73 30 -102 21 -99 256 -105 l204 -6 50 52 c27 28 55
51 62 51 7 0 76 65 155 145 200 202 198 200 198 233 0 17 6 32 15 36 8 3 15
16 15 29 0 14 7 30 15 37 8 7 15 23 15 35 0 13 7 25 15 29 9 3 15 18 15 34 0
16 7 35 15 42 8 7 15 18 15 25 0 7 7 15 15 19 8 3 15 15 15 26 0 12 7 28 15
36 8 9 15 25 15 37 0 13 13 37 30 55 17 18 30 44 30 56 0 13 7 29 15 36 8 7
15 23 15 37 0 13 7 26 15 29 8 4 15 13 15 20 0 8 7 17 15 20 9 4 15 19 15 39
0 18 7 38 15 45 8 7 15 21 15 31 0 11 5 19 10 19 6 0 15 11 20 25 5 14 14 25
20 25 5 0 10 15 10 34 0 18 7 39 15 46 8 7 15 18 15 25 0 7 7 18 15 25 8 7 15
20 15 30 0 10 7 20 15 24 9 3 15 18 15 34 0 16 7 35 15 42 8 7 15 18 15 25 0
7 7 15 15 19 8 3 15 15 15 26 0 12 7 28 15 36 8 9 15 25 15 37 0 13 14 37 30
55 17 18 30 44 30 56 0 13 7 29 15 36 8 7 15 22 15 34 0 12 14 36 30 54 19 21
30 44 30 62 0 15 7 30 15 34 8 3 15 16 15 28 0 13 14 39 31 57 30 33 31 37 26
105 -2 39 -2 59 0 44 5 -35 20 -36 33 -3 5 14 14 25 20 25 5 0 10 11 10 24 0
13 7 29 15 36 8 7 15 17 15 22 0 18 41 98 50 98 6 0 10 8 10 18 0 22 61 144
78 155 6 4 12 21 12 36 0 16 7 34 15 41 8 7 15 18 15 25 0 7 7 18 15 25 8 7
15 20 15 30 0 10 7 20 15 24 9 3 15 18 15 34 0 16 7 35 15 42 8 7 15 18 15 25
0 7 7 18 15 25 8 7 15 20 15 30 0 10 7 20 15 24 8 3 15 17 15 30 0 27 37 96
51 96 13 0 11 37 -3 60 -10 15 -10 22 0 32 9 9 12 7 12 -10 0 -31 19 -27 30 6
17 45 34 77 47 85 7 4 13 21 13 37 0 17 4 30 8 30 4 0 19 25 32 55 13 30 30
57 37 59 7 3 13 18 13 34 0 16 7 35 15 42 8 7 15 18 15 25 0 7 7 18 15 25 8 7
15 20 15 30 0 10 7 20 15 24 9 3 15 18 15 34 0 16 7 35 15 42 8 7 15 23 15 35
0 12 7 28 15 35 8 7 15 20 15 30 0 10 7 23 15 30 8 7 15 18 15 26 0 18 32 87
47 99 6 6 19 32 27 58 9 27 23 55 31 64 8 8 15 23 15 34 0 10 4 19 9 19 12 0
37 50 46 89 3 16 13 32 21 35 8 3 14 17 14 31 0 14 4 25 9 25 13 0 39 54 47
96 4 24 12 34 25 34 20 0 49 36 49 61 0 9 7 19 15 23 8 3 15 17 15 32 0 14 14
43 30 64 17 21 30 43 30 50 0 17 69 158 81 166 5 3 9 13 9 23 0 10 6 24 14 30
8 7 17 24 21 39 4 15 17 41 31 59 13 17 24 43 24 56 0 14 6 30 13 36 8 6 22
30 33 53 10 24 24 47 31 51 7 4 13 14 13 20 0 7 13 38 30 70 21 40 28 66 24
85 -5 23 -1 32 20 45 33 22 50 22 40 0 -16 -36 -22 -176 -23 -474 0 -263 -2
-308 -16 -319 -13 -11 -15 -57 -15 -329 0 -205 -4 -321 -10 -327 -10 -10 -14
-173 -25 -969 -3 -209 -8 -321 -15 -323 -7 -3 -10 -107 -10 -314 0 -262 -2
-312 -15 -324 -13 -13 -15 -65 -15 -338 0 -195 -4 -326 -10 -332 -5 -5 -12
-141 -15 -324 -2 -173 -7 -454 -10 -624 -3 -188 -9 -314 -15 -320 -6 -6 -10
-96 -10 -232 0 -138 -4 -225 -10 -229 -6 -3 -10 -37 -10 -75 0 -46 -4 -70 -12
-73 -8 -2 -14 -24 -14 -58 -3 -106 -17 -214 -30 -234 -8 -11 -14 -43 -14 -71
0 -29 -5 -54 -10 -56 -7 -2 -13 -53 -15 -124 -3 -76 -10 -133 -20 -157 -8 -20
-15 -62 -15 -94 0 -33 -7 -66 -14 -76 -9 -11 -12 -33 -9 -61 4 -29 0 -51 -10
-67 -10 -16 -17 -65 -22 -148 -5 -82 -12 -132 -22 -147 -10 -16 -13 -39 -9
-77 4 -41 1 -59 -10 -67 -10 -9 -14 -33 -14 -79 0 -37 -4 -71 -9 -77 -10 -10
-21 -112 -24 -211 -1 -34 -8 -68 -14 -74 -7 -7 -13 -31 -13 -53 0 -26 -8 -50
-25 -72 -14 -18 -24 -39 -23 -46 2 -7 -7 -17 -19 -23 -14 -6 -23 -19 -23 -33
0 -12 -7 -25 -15 -28 -16 -6 -45 -58 -45 -80 0 -7 -14 -27 -30 -44 -17 -17
-30 -37 -30 -44 0 -8 -7 -16 -15 -20 -8 -3 -15 -14 -15 -25 0 -10 -7 -21 -14
-24 -8 -3 -23 -21 -32 -39 -9 -18 -34 -55 -54 -83 -20 -27 -40 -63 -44 -79 -4
-15 -20 -39 -36 -53 -17 -14 -30 -33 -30 -43 0 -10 -7 -23 -15 -30 -8 -7 -15
-18 -15 -25 0 -6 -13 -24 -30 -38 -16 -15 -30 -36 -30 -46 0 -10 -7 -21 -15
-25 -8 -3 -15 -13 -15 -23 0 -10 -12 -29 -26 -43 -14 -13 -30 -33 -35 -45 -14
-32 -33 -59 -46 -68 -7 -4 -13 -16 -13 -26 0 -10 -7 -24 -15 -31 -8 -7 -15
-19 -15 -27 0 -8 -13 -26 -30 -40 -16 -13 -30 -33 -30 -43 0 -10 -6 -23 -14
-29 -8 -7 -17 -22 -20 -35 -7 -27 -31 -36 -97 -36 -29 0 -51 -6 -59 -15 -7 -8
-27 -15 -45 -15 -20 0 -35 -6 -39 -15 -3 -9 -18 -15 -39 -15 -19 0 -40 -7 -47
-15 -9 -11 -32 -15 -81 -15 -55 0 -69 -3 -69 -15 0 -11 -12 -15 -44 -15 -30 0
-46 -5 -50 -15 -3 -10 -19 -15 -44 -15 -21 0 -43 -5 -50 -12 -13 -13 -16 -13
-94 -16 -35 -2 -48 -6 -48 -17 0 -11 -12 -15 -44 -15 -29 0 -46 -5 -49 -14 -3
-8 -20 -16 -38 -18 -39 -4 -49 -23 -17 -31 12 -4 19 -10 15 -14 -4 -4 -29 4
-54 17 -33 18 -47 22 -50 13 -3 -8 -22 -13 -48 -13 -29 0 -45 -5 -49 -15 -3
-8 -17 -15 -30 -15 -14 0 -29 -8 -35 -18 -9 -15 -27 -17 -182 -15 -146 1 -174
4 -181 17 -7 12 -26 16 -82 16 -56 0 -75 4 -80 15 -4 12 -24 15 -90 15 -47 0
-88 4 -91 10 -3 5 -28 12 -55 16 -27 4 -51 13 -54 20 -3 8 -17 14 -31 14 -14
0 -28 7 -31 15 -4 10 -21 15 -53 15 -25 1 -57 7 -71 15 -14 8 -37 14 -51 15
-15 0 -29 7 -33 15 -3 8 -17 15 -31 15 -14 0 -28 7 -31 15 -4 10 -19 15 -43
15 -30 0 -40 5 -54 30 -10 17 -27 30 -38 30 -10 0 -19 7 -19 15 0 9 -9 15 -24
15 -13 0 -26 7 -30 15 -3 8 -17 15 -30 15 -14 0 -30 8 -35 19 -6 10 -24 24
-41 31 -16 7 -30 16 -30 21 0 5 -11 14 -25 19 -14 5 -25 14 -25 20 0 6 -5 8
-10 5 -6 -4 -9 -22 -8 -41 1 -20 -2 -38 -7 -42 -6 -4 -10 -125 -9 -307 1 -220
-2 -304 -11 -315 -9 -11 -12 -97 -13 -314 0 -201 -4 -302 -11 -309 -7 -7 -11
-67 -11 -163 l0 -153 -126 -125 c-69 -70 -130 -126 -136 -126 -6 0 -35 -25
-65 -55 -30 -30 -58 -55 -62 -55 -14 0 -33 -70 -23 -83 17 -19 170 -87 198
-87 6 0 32 -11 58 -25 26 -14 55 -25 65 -25 10 0 24 -7 31 -15 7 -8 22 -15 34
-15 49 0 106 -13 117 -26 7 -8 31 -14 60 -14 26 0 51 -4 54 -10 3 -5 18 -10
33 -10 15 0 59 -9 97 -20 39 -11 91 -20 116 -20 27 0 51 -6 58 -13 8 -10 30
-13 84 -9 54 3 83 0 108 -11 55 -25 192 -31 476 -21 123 4 165 9 174 20 9 11
41 14 143 14 73 0 136 4 142 9 5 6 70 12 144 15 170 6 338 21 370 31 13 5 39
19 57 31 18 12 51 25 73 29 21 4 44 13 51 21 6 8 24 14 40 14 16 0 29 3 29 8
0 9 92 52 112 52 15 0 81 32 103 50 8 6 18 9 23 6 4 -2 21 4 38 15 16 10 39
19 50 19 12 0 24 7 28 15 3 8 17 15 31 15 15 0 33 7 41 15 9 8 24 15 33 15 10
0 24 7 31 15 7 8 22 15 33 15 23 0 104 37 113 51 3 5 13 9 23 9 34 0 76 29
151 105 41 41 80 75 86 75 7 0 50 37 97 82 47 46 117 110 156 143 38 33 70 65
70 71 1 13 64 64 79 64 5 0 41 34 81 75 40 41 78 75 85 75 15 1 56 36 56 49 0
6 4 11 9 11 4 0 41 33 82 73 41 40 91 84 112 96 20 12 37 27 37 32 0 5 7 9 15
9 8 0 15 6 15 13 0 8 19 30 41 50 23 19 47 46 53 59 6 13 22 25 35 26 14 2 44
24 68 48 38 37 43 48 40 76 -2 18 -2 25 0 15 6 -23 27 -17 32 9 2 10 9 23 17
27 8 4 14 19 14 31 0 13 7 26 15 30 8 3 15 14 15 25 0 11 14 29 30 41 17 12
30 30 30 41 0 10 7 19 15 19 10 0 15 10 15 30 0 20 5 30 15 30 9 0 15 9 15 24
0 13 7 26 15 30 8 3 15 12 15 20 0 7 7 16 15 20 8 3 15 14 15 25 0 10 13 31
30 44 16 14 30 35 30 47 0 12 14 39 30 60 17 21 30 40 30 43 0 3 11 18 25 33
14 15 25 38 25 51 0 14 14 37 33 56 19 18 39 51 45 73 8 27 19 44 32 47 14 3
20 14 20 31 0 16 6 26 15 26 9 0 15 9 15 24 0 13 7 26 15 30 8 3 15 14 15 25
0 10 7 21 15 25 10 4 15 20 15 50 0 25 4 47 9 51 5 3 13 30 16 59 4 32 13 57
21 60 8 3 14 17 14 31 0 14 6 28 14 31 9 4 17 30 21 75 4 38 11 72 16 75 5 3
9 18 9 33 0 16 7 34 15 41 8 7 15 24 15 38 0 13 7 30 16 36 10 8 15 29 16 63
1 33 6 54 15 57 8 3 13 21 13 45 0 25 5 41 15 45 9 3 15 18 15 35 0 16 5 31
10 33 6 2 13 28 17 58 3 30 12 64 19 75 8 11 14 29 14 41 0 12 7 24 15 28 10
3 15 19 15 44 0 22 6 44 13 50 7 6 14 32 15 59 1 29 8 52 17 59 11 8 15 30 15
82 0 53 4 71 15 76 12 4 15 26 15 106 0 55 4 100 9 100 5 0 12 86 16 191 6
148 10 192 21 196 11 4 14 29 14 103 0 73 3 99 14 103 10 4 15 49 20 188 4
101 12 191 17 200 5 10 9 60 9 112 0 75 3 96 15 101 13 4 15 37 15 210 0 172
2 205 15 210 13 5 15 86 15 645 0 559 2 640 15 645 13 5 15 51 15 335 0 283 2
330 15 335 13 5 15 50 15 320 l0 315 25 26 c13 15 28 25 33 23 13 -5 82 -85
82 -95 0 -5 14 -22 30 -38 17 -16 30 -33 30 -38 0 -5 18 -29 40 -53 22 -24 40
-49 40 -57 0 -7 13 -24 30 -37 16 -14 29 -31 30 -37 0 -7 16 -29 36 -50 20
-20 46 -53 59 -73 12 -19 30 -41 39 -49 9 -7 16 -19 16 -25 0 -7 14 -25 30
-41 17 -16 30 -34 30 -41 0 -7 20 -32 45 -55 24 -23 47 -50 51 -61 3 -10 19
-32 35 -49 16 -16 29 -35 29 -41 0 -6 18 -32 40 -57 21 -25 53 -62 70 -81 16
-19 52 -66 80 -105 27 -38 56 -77 63 -85 8 -8 23 -28 33 -45 10 -16 36 -46 56
-66 21 -19 38 -42 38 -50 0 -8 13 -26 30 -39 16 -14 29 -31 30 -37 0 -7 16
-30 35 -52 19 -21 35 -43 35 -49 0 -5 15 -26 33 -46 58 -63 103 -120 126 -158
12 -21 26 -38 30 -38 4 0 15 -15 25 -32 11 -18 34 -50 53 -71 18 -20 33 -41
33 -46 0 -5 17 -27 38 -49 59 -65 102 -119 102 -129 0 -6 16 -26 35 -46 19
-20 35 -42 35 -49 0 -8 20 -34 45 -58 25 -24 45 -49 45 -55 0 -6 14 -24 30
-40 17 -16 30 -33 30 -38 0 -5 18 -29 40 -54 22 -25 40 -51 40 -57 0 -6 16
-24 35 -39 19 -15 35 -34 35 -41 0 -7 13 -28 30 -47 38 -44 91 -115 108 -145
7 -13 24 -32 37 -42 14 -11 25 -26 25 -32 0 -7 23 -37 50 -66 28 -29 50 -57
50 -63 0 -6 14 -24 30 -41 17 -17 30 -36 30 -44 0 -22 45 -56 76 -56 16 0 41
-6 55 -14 20 -10 107 -15 344 -21 243 -6 323 -11 344 -22 20 -10 63 -13 179
-12 107 2 156 -1 164 -9 7 -7 31 -12 54 -12 47 0 41 -5 215 160 58 55 110 100
115 100 13 0 112 93 141 133 l22 30 -24 19 c-14 11 -25 27 -25 36 0 10 -20 33
-45 52 -27 21 -44 43 -45 56 0 12 -19 37 -45 60 -29 24 -45 46 -45 61 0 24
-18 31 -36 13 -6 -6 -15 -6 -24 0 -12 8 -10 10 8 10 25 0 30 18 7 26 -8 4 -15
12 -15 20 0 8 -7 14 -15 14 -8 0 -15 9 -15 20 0 12 -20 40 -45 64 -25 25 -45
49 -45 54 0 5 -20 28 -45 51 -25 23 -45 49 -45 58 0 9 -20 35 -44 57 -24 23
-46 50 -48 60 -4 26 -25 32 -31 9 -2 -10 -3 -5 -1 10 2 18 -2 30 -11 33 -8 4
-15 12 -15 19 0 7 -7 15 -15 19 -8 3 -15 10 -15 17 0 17 -38 61 -63 73 -12 7
-23 21 -25 33 -2 12 -23 40 -48 62 -24 23 -44 48 -44 57 0 8 -20 35 -45 58
-25 24 -45 50 -45 57 -1 21 -36 59 -54 59 -9 0 -16 7 -16 15 0 8 -4 15 -10 15
-5 0 -10 10 -10 23 0 16 -14 33 -45 55 -26 18 -45 39 -45 51 0 10 -20 37 -45
60 -25 23 -45 48 -45 56 0 17 -35 55 -49 55 -5 0 -13 9 -16 20 -3 11 -11 20
-16 20 -5 0 -9 11 -9 25 0 14 -4 25 -9 25 -14 0 -61 45 -61 59 0 6 -25 36 -55
66 -30 31 -55 61 -55 69 0 21 -69 78 -86 72 -13 -5 -14 0 -9 23 5 25 0 35 -39
73 -25 23 -46 50 -46 58 0 9 -13 27 -30 40 -16 14 -29 30 -30 36 0 7 -7 14
-15 18 -8 3 -15 11 -15 17 0 6 -20 29 -45 51 -25 22 -45 47 -45 56 0 10 -20
35 -45 57 -25 22 -45 47 -45 56 0 8 -20 36 -45 61 -25 25 -45 51 -45 56 0 15
-45 62 -59 62 -7 0 -18 15 -26 33 -8 19 -32 50 -54 70 -23 20 -41 44 -41 52 0
9 -20 36 -45 61 -25 24 -45 51 -45 59 0 17 -35 55 -50 55 -6 0 -19 18 -29 40
-18 40 -72 90 -98 90 -9 0 -11 8 -8 23 5 17 -3 31 -34 60 -21 20 -44 37 -50
37 -7 0 -9 9 -5 24 4 19 -1 29 -28 50 -19 14 -40 41 -48 61 -7 19 -17 35 -21
35 -14 0 -59 47 -59 61 0 8 -18 31 -39 51 -22 20 -42 46 -46 56 -3 11 -24 37
-45 56 -22 20 -40 44 -40 54 0 27 -35 56 -57 47 -17 -6 -17 -7 1 -21 11 -7 17
-17 13 -20 -9 -9 -37 15 -37 31 0 8 6 16 13 19 9 3 7 9 -5 19 -10 8 -18 26
-18 41 0 14 -4 26 -10 26 -12 0 -80 68 -80 80 0 6 -20 31 -45 57 -25 25 -45
52 -45 59 0 7 -20 30 -45 51 -28 23 -45 46 -45 60 0 12 -8 24 -19 28 -33 10
-37 75 -5 75 8 0 17 7 20 15 4 8 12 15 20 15 8 0 14 5 14 12 0 6 41 51 91 99
56 55 88 93 83 100 -4 7 -3 9 3 6 6 -4 16 0 23 8 7 8 19 15 26 15 8 0 14 4 14
9 0 14 65 81 79 81 6 0 11 5 11 11 0 14 67 79 81 79 5 0 9 4 9 10 0 13 217
230 230 230 6 0 10 4 10 10 0 5 16 25 35 45 20 19 40 35 45 35 6 0 10 4 10 10
0 5 16 25 35 45 20 19 40 35 45 35 6 0 10 6 10 14 0 7 7 19 15 26 8 7 12 17 8
23 -3 6 -1 7 5 3 13 -8 182 155 182 176 0 7 27 39 61 71 48 47 59 63 54 80 -5
17 -4 19 4 7 11 -16 26 -6 88 60 39 41 40 47 11 53 -22 3 -22 4 -4 12 13 6 21
5 24 -3 2 -7 7 -12 12 -12 11 0 230 221 230 232 0 4 -4 8 -10 8 -5 0 -10 5
-10 10 0 6 7 6 18 -1 16 -10 33 3 130 101 62 62 112 116 112 121 0 4 -8 10
-17 12 -10 2 -6 3 10 1 23 -3 40 9 107 78 77 79 91 98 70 98 -5 0 -10 5 -10
10 0 6 7 6 19 -1 15 -10 22 -8 41 11 19 19 21 25 10 45 -12 23 -7 45 11 45 5
0 7 -11 3 -25 -3 -14 -2 -25 3 -25 17 0 84 74 79 86 -3 8 0 11 8 8 12 -5 86
62 86 78 0 4 -10 8 -22 8 -21 0 -21 0 -2 21 l19 21 3 -21 c4 -26 16 -27 42 -1
26 26 25 38 -2 43 -21 3 -21 4 -4 12 12 5 21 3 27 -6 8 -12 12 -11 23 4 7 9
16 17 20 17 9 0 76 73 76 83 0 4 -4 7 -10 7 -17 0 -11 16 15 44 14 15 25 23
25 18 0 -5 -7 -15 -15 -22 -17 -14 -20 -40 -5 -40 15 0 50 38 50 53 0 14 780
799 800 805 5 2 10 8 10 13 0 5 -46 9 -103 9 -58 0 -108 5 -113 10 -7 7 -127
13 -325 16 -250 5 -317 9 -330 20 -11 10 -41 14 -97 14 -80 0 -82 -1 -117 -35
-19 -20 -35 -39 -35 -43 0 -4 -18 -24 -40 -45 -22 -20 -40 -44 -40 -52 0 -8
-7 -15 -15 -15 -8 0 -15 -4 -15 -9 0 -5 -9 -13 -20 -16 -11 -3 -20 -13 -20
-21 0 -8 -4 -14 -10 -14 -5 0 -10 -5 -10 -12 0 -6 -49 -59 -110 -118 -60 -58
-110 -114 -110 -123 0 -9 -4 -17 -9 -17 -14 0 -131 -120 -131 -134 0 -7 -12
-19 -27 -27 -16 -8 -37 -25 -48 -39 -11 -14 -53 -57 -92 -97 -40 -39 -73 -78
-73 -86 0 -8 -16 -25 -35 -38 -19 -13 -35 -28 -35 -32 0 -4 -12 -19 -27 -33
-60 -53 -105 -100 -114 -116 -5 -10 -16 -18 -24 -18 -8 0 -15 -5 -15 -11 0 -6
-27 -38 -60 -71 -33 -32 -60 -63 -60 -69 0 -5 -67 -77 -150 -159 -82 -82 -150
-154 -150 -159 0 -6 -4 -11 -8 -11 -13 0 -82 -72 -82 -84 0 -6 -76 -87 -170
-181 -93 -93 -170 -174 -170 -180 0 -5 -43 -52 -95 -103 -52 -51 -95 -98 -95
-103 0 -5 -6 -9 -12 -9 -15 0 -52 -38 -61 -63 -4 -9 -15 -21 -25 -25 -20 -8
-92 -84 -92 -98 -1 -5 -34 -43 -75 -84 -41 -41 -75 -78 -75 -82 0 -4 -7 -8
-15 -8 -8 0 -15 -3 -15 -8 0 -8 -24 -33 -114 -120 -36 -35 -68 -71 -71 -82 -3
-10 -44 -57 -91 -105 -47 -47 -84 -92 -81 -99 3 -8 -3 -12 -16 -12 -13 1 -29
-11 -42 -31 -22 -36 -68 -46 -79 -17 -3 9 -6 62 -6 119 0 82 3 104 15 109 13
5 15 50 15 324 0 180 4 322 9 327 6 6 12 281 16 645 6 530 9 636 21 643 12 7
14 64 14 333 0 279 2 325 15 330 13 5 15 52 15 334 0 184 4 330 9 332 5 2 10
275 12 630 l4 627 -290 7 c-232 5 -292 9 -298 20 -6 11 -42 14 -168 14 -133 0
-161 3 -165 15 -5 12 -33 15 -168 15 -89 0 -166 4 -172 9 -5 5 -102 11 -215
13 -195 5 -207 4 -218 -14z m608 -52 c14 -8 19 -16 13 -20 -6 -3 -13 -2 -17 4
-3 5 -26 10 -51 10 -28 0 -43 4 -39 10 9 14 66 12 94 -4z m131 4 c0 -5 -18
-10 -41 -10 -24 0 -38 4 -34 10 3 6 22 10 41 10 19 0 34 -4 34 -10z m228 -32
c17 -17 15 -28 -6 -28 -11 0 -27 9 -37 20 -18 19 -17 20 6 20 14 0 30 -5 37
-12z m187 -28 c-3 -5 -15 -10 -26 -10 -10 0 -19 5 -19 10 0 6 12 10 26 10 14
0 23 -4 19 -10z m263 3 c-10 -2 -28 -2 -40 0 -13 2 -5 4 17 4 22 1 32 -1 23
-4z m252 -30 c0 -35 -1 -36 -19 -19 -16 15 -18 21 -8 37 18 29 27 23 27 -18z
m0 -103 c0 -11 -4 -20 -10 -20 -5 0 -10 9 -10 20 0 11 5 20 10 20 6 0 10 -9
10 -20z m-3 -130 c1 -38 -3 -72 -8 -75 -5 -4 -9 14 -9 39 0 25 -4 47 -10 51
-10 6 7 55 20 55 3 0 6 -31 7 -70z m3 -321 c0 -11 -5 -17 -10 -14 -6 3 -14 -4
-19 -17 -6 -14 -10 -17 -10 -7 -1 22 22 68 31 63 5 -3 8 -14 8 -25z m-28 -326
c-9 -25 -10 -21 -10 27 0 48 1 52 10 28 6 -19 6 -37 0 -55z m-7952 -23 c0 -5
-6 -10 -14 -10 -8 0 -18 5 -21 10 -3 6 3 10 14 10 12 0 21 -4 21 -10z m245
-20 c0 -18 -33 -26 -47 -12 -6 6 -7 15 -3 22 10 16 50 8 50 -10z m185 2 c0 -4
-26 -8 -57 -9 -45 0 -51 1 -28 7 42 11 85 12 85 2z m115 -12 c4 -6 -5 -10 -19
-10 -14 0 -26 5 -26 10 0 6 9 10 19 10 11 0 23 -4 26 -10z m85 0 c0 -5 -12
-10 -26 -10 -14 0 -23 4 -19 10 3 6 15 10 26 10 10 0 19 -4 19 -10z m65 -20
c-5 -8 -11 -8 -17 -2 -6 6 -7 16 -3 22 5 8 11 8 17 2 6 -6 7 -16 3 -22z m85
10 c0 -17 -3 -18 -25 -8 -27 12 -24 28 6 28 12 0 19 -7 19 -20z m135 -20 c3
-5 -3 -10 -14 -10 -12 0 -21 5 -21 10 0 6 6 10 14 10 8 0 18 -4 21 -10z m135
-10 c0 -23 -4 -24 -31 -10 -27 15 -24 30 6 30 18 0 25 -5 25 -20z m-642 -81
c-10 -5 -32 -5 -55 0 -38 8 -37 8 17 9 37 0 49 -3 38 -9z m312 -11 c0 -16 -3
-19 -11 -11 -6 6 -8 16 -5 22 11 17 16 13 16 -11z m363 -21 c3 -22 2 -35 -4
-32 -5 4 -9 22 -9 42 0 45 5 40 13 -10z m6462 -218 c12 -19 -4 -61 -23 -57
-30 6 -28 68 2 68 8 0 18 -5 21 -11z m-6286 -229 l0 -35 -19 35 c-13 26 -15
39 -7 48 15 18 27 -3 26 -48z m6663 8 c-9 -9 -12 -7 -12 12 0 19 3 21 12 12 9
-9 9 -15 0 -24z m-6602 -133 c0 -14 -4 -25 -10 -25 -5 0 -10 1 -10 3 0 1 -4
17 -9 35 -9 30 -8 31 10 22 11 -6 19 -21 19 -35z m9914 3 c-15 -7 -28 -7 -40
1 -16 9 -12 10 21 10 35 0 37 -2 19 -11z m184 5 c-10 -2 -28 -2 -40 0 -13 2
-5 4 17 4 22 1 32 -1 23 -4z m142 -3 c-36 -12 -60 -12 -60 0 0 6 19 10 43 9
36 -1 38 -2 17 -9z m104 0 c-6 -6 -21 -6 -39 -1 -30 9 -30 9 10 10 25 1 36 -2
29 -9z m-10275 -227 c1 -7 -3 -13 -9 -13 -5 0 -10 17 -9 38 1 33 2 34 9 12 4
-14 8 -31 9 -37z m10277 20 c-11 -11 -19 6 -11 24 8 17 8 17 12 0 3 -10 2 -21
-1 -24z m-3749 -45 c-2 -13 -4 -5 -4 17 -1 22 1 32 4 23 2 -10 2 -28 0 -40z
m-6477 -84 c0 -14 -4 -23 -10 -19 -5 3 -10 15 -10 26 0 10 5 19 10 19 6 0 10
-12 10 -26z m60 -143 c0 -27 -3 -32 -10 -21 -5 8 -10 26 -10 41 0 14 -6 31
-12 39 -7 8 -3 6 10 -4 15 -13 22 -30 22 -55z m6420 -43 c0 -38 -3 -49 -10
-38 -16 25 -11 90 7 90 2 0 3 -24 3 -52z m3408 -16 c-10 -2 -18 -10 -18 -18 0
-8 -4 -14 -10 -14 -15 0 -12 16 6 34 8 9 21 13 27 9 8 -5 6 -9 -5 -11z
m-10456 -87 c0 -5 -5 -11 -11 -13 -6 -2 -11 4 -11 13 0 9 5 15 11 13 6 -2 11
-8 11 -13z m7048 -62 c0 -48 -3 -64 -10 -53 -17 26 -12 120 7 120 2 0 3 -30 3
-67z m-6346 28 c8 -13 -4 -42 -15 -35 -12 7 -12 44 0 44 6 0 12 -4 15 -9z
m9611 -1 c-3 -6 -12 -22 -20 -36 -7 -14 -16 -21 -19 -16 -3 5 4 21 15 36 20
25 37 36 24 16z m-3265 -161 c0 -31 -4 -48 -10 -44 -11 7 -13 54 -4 79 10 27
14 18 14 -35z m-6243 -121 c-2 -13 -4 -5 -4 17 -1 22 1 32 4 23 2 -10 2 -28 0
-40z m53 -118 c-6 -11 -15 -20 -21 -20 -6 0 -6 7 1 20 6 11 15 20 21 20 6 0 6
-7 -1 -20z m69 -197 c0 -35 -1 -36 -10 -14 -5 14 -7 31 -5 38 10 24 16 13 15
-24z m8756 -83 c3 -5 -3 -10 -15 -10 -12 0 -18 5 -15 10 3 6 10 10 15 10 5 0
12 -4 15 -10z m-179 -187 c-11 -11 -19 6 -11 24 8 17 8 17 12 0 3 -10 2 -21
-1 -24z m-8456 -40 c0 -22 -2 -25 -10 -13 -13 20 -13 40 0 40 6 0 10 -12 10
-27z m60 -140 c0 -44 -5 -41 -14 10 -5 27 -4 37 3 32 6 -3 11 -22 11 -42z m70
-173 c11 -7 17 -39 8 -39 -24 -2 -28 2 -27 37 0 20 3 30 6 22 3 -8 9 -17 13
-20z m7850 -115 c0 -9 -9 -15 -21 -15 -18 0 -19 2 -9 15 7 8 16 15 21 15 5 0
9 -7 9 -15z m-7740 -146 c0 -11 -4 -17 -10 -14 -5 3 -10 13 -10 21 0 8 5 14
10 14 6 0 10 -9 10 -21z m-1563 -91 c-2 -13 -4 -5 -4 17 -1 22 1 32 4 23 2
-10 2 -28 0 -40z m9073 -6 c0 -13 -12 -22 -22 -16 -10 6 -1 24 13 24 5 0 9 -4
9 -8z m-7450 -69 c0 -39 -9 -36 -28 10 -10 24 -10 27 8 27 16 0 20 -7 20 -37z
m40 -115 c0 -5 -4 -8 -10 -8 -5 0 -10 10 -10 23 0 18 2 19 10 7 5 -8 10 -18
10 -22z m19 -35 c0 -29 -2 -33 -8 -18 -7 18 -4 55 5 55 2 0 4 -17 3 -37z m31
-75 c0 -19 -2 -20 -10 -8 -13 19 -13 30 0 30 6 0 10 -10 10 -22z m90 -209 c0
-11 -4 -17 -10 -14 -5 3 -10 13 -10 21 0 8 5 14 10 14 6 0 10 -9 10 -21z m16
-68 c-13 -20 -26 -11 -26 16 0 25 1 26 16 11 9 -9 13 -21 10 -27z m5394 -57
c0 -8 -4 -14 -10 -14 -5 0 -10 9 -10 21 0 11 5 17 10 14 6 -3 10 -13 10 -21z
m-2170 -39 c0 -8 -7 -15 -15 -15 -16 0 -20 12 -8 23 11 12 23 8 23 -8z m-35
-64 c-4 -17 -11 -31 -16 -31 -5 0 -9 -13 -9 -30 0 -19 -5 -30 -14 -30 -8 0
-17 -8 -19 -17 -4 -14 -5 -14 -6 3 0 12 6 27 14 34 8 7 15 20 15 30 0 10 7 23
15 30 8 7 15 22 15 33 0 11 3 18 6 14 3 -3 3 -19 -1 -36z m2210 19 c0 -7 -6
-15 -12 -17 -8 -3 -13 4 -13 17 0 13 5 20 13 18 6 -3 12 -11 12 -18z m-5277
-178 c-5 -27 -28 -26 -28 2 0 19 4 24 15 19 9 -3 15 -12 13 -21z m-1978 -93
c0 -36 -4 -49 -15 -49 -11 0 -14 12 -13 48 0 52 5 65 19 57 5 -4 9 -28 9 -56z
m-11 -125 c-12 -14 -14 -14 -20 3 -4 11 -1 23 10 31 13 11 17 10 19 -3 2 -9
-2 -23 -9 -31z m2091 1 c0 -14 -4 -25 -10 -25 -11 0 -14 33 -3 43 11 11 13 8
13 -18z m2773 -14 c-6 -3 -13 -13 -16 -21 -4 -11 -6 -9 -6 6 -1 24 22 51 28
33 2 -6 -1 -14 -6 -18z m-4855 -31 c10 -26 3 -100 -9 -100 -17 0 -22 31 -9 56
11 19 11 27 2 36 -15 15 -15 28 -2 28 6 0 14 -9 18 -20z m-141 -42 c-2 -13 -4
-5 -4 17 -1 22 1 32 4 23 2 -10 2 -28 0 -40z m6166 -43 c1 -5 -6 -11 -15 -13
-11 -2 -18 3 -18 13 0 17 30 18 33 0z m-1252 -48 c-8 -8 -11 -4 -11 14 0 33
14 47 18 19 2 -12 -1 -27 -7 -33z m-4769 -111 c-1 -95 -6 -113 -28 -95 -13 10
-12 14 2 30 12 13 14 23 7 31 -14 19 -16 98 -2 114 7 8 14 12 17 10 2 -3 4
-43 4 -90z m4721 12 c-8 -46 -13 -48 -13 -5 0 21 4 37 10 37 5 0 7 -14 3 -32z
m3496 -27 c8 -5 5 -13 -9 -26 -20 -18 -20 -18 -20 21 0 26 3 34 9 25 5 -7 14
-17 20 -20z m101 -132 c0 -11 -4 -17 -10 -14 -5 3 -10 13 -10 21 0 8 5 14 10
14 6 0 10 -9 10 -21z m-6058 -43 c3 -14 1 -31 -3 -38 -6 -9 -9 -7 -9 9 0 12
-3 28 -6 37 -3 9 -2 16 4 16 5 0 12 -11 14 -24z m-2285 -101 c-1 -72 -17 -67
-17 6 0 39 5 59 16 59 1 0 2 -29 1 -65z m2342 -62 c-1 -37 -1 -37 -8 -8 -7 28
-5 45 5 45 2 0 3 -17 3 -37z m2211 -43 c-6 -11 -15 -20 -20 -20 -6 0 -5 9 2
20 7 11 16 20 21 20 4 0 3 -9 -3 -20z m-4553 -55 c0 -30 -4 -52 -9 -49 -13 8
-8 104 6 104 2 0 3 -25 3 -55z m8587 -1 c9 -22 -3 -32 -14 -14 -12 19 -12 30
-1 30 5 0 12 -7 15 -16z m-6161 -116 c-6 -13 -31 3 -36 24 -11 39 4 50 22 16
10 -18 16 -36 14 -40z m-2427 -32 c-1 -66 -16 -88 -16 -23 0 40 7 77 15 77 1
0 2 -24 1 -54z m2473 -103 c1 -7 -3 -13 -8 -13 -14 0 -22 31 -14 54 6 20 7 20
14 -4 4 -14 7 -31 8 -37z m-2478 -26 c-8 -8 -11 -4 -11 14 0 33 14 47 18 19 2
-12 -1 -27 -7 -33z m4409 23 c0 -5 -4 -10 -10 -10 -5 0 -10 -8 -10 -17 -1 -17
-1 -17 -11 0 -5 9 -7 22 -4 27 8 13 35 13 35 0z m-84 -178 c-12 -12 -18 8 -10
35 l8 28 4 -28 c2 -16 1 -31 -2 -35z m-4348 -54 c-1 -47 -1 -49 -8 -20 -7 29
-3 72 5 72 2 0 3 -24 3 -52z m4255 -118 c-3 -11 -9 -20 -13 -20 -5 0 -10 -8
-12 -17 -2 -12 -6 -14 -11 -7 -4 7 3 23 14 38 25 31 29 32 22 6z m-1583 -40
c0 -51 -15 -66 -28 -29 -11 30 -2 79 14 79 10 0 14 -14 14 -50z m6476 -37
c-11 -11 -19 6 -11 24 8 17 8 17 12 0 3 -10 2 -21 -1 -24z m-9146 -60 c0 -27
-3 -34 -11 -26 -7 7 -9 23 -5 37 9 37 16 32 16 -11z m7246 -116 c1 -81 -2
-127 -10 -139 -10 -14 -12 11 -11 120 2 155 2 158 13 148 4 -4 8 -62 8 -129z
m-3085 76 c-9 -16 -10 -16 -11 -1 0 9 3 25 7 35 7 16 8 17 11 1 2 -10 -1 -25
-7 -35z m5049 25 c0 -19 -2 -20 -10 -8 -13 19 -13 30 0 30 6 0 10 -10 10 -22z
m-6480 -55 c0 -25 0 -26 -20 -8 -11 10 -20 27 -20 37 0 16 3 17 20 8 12 -7 20
-21 20 -37z m1363 -80 c4 -3 3 -11 -2 -17 -5 -6 -11 -20 -14 -31 -3 -12 -5 -4
-6 18 -1 35 7 46 22 30z m-1304 -90 c-1 -34 -2 -35 -9 -13 -11 36 -11 50 0 50
6 0 10 -17 9 -37z m-2939 -60 c-1 -31 -3 -35 -11 -20 -6 9 -7 26 -4 37 10 30
15 24 15 -17z m7398 -11 c2 -15 -2 -22 -12 -22 -11 0 -16 9 -16 26 0 31 23 28
28 -4z m-7398 -123 c0 -11 -4 -17 -10 -14 -5 3 -10 13 -10 21 0 8 5 14 10 14
6 0 10 -9 10 -21z m7400 3 c0 -10 -5 -23 -11 -29 -8 -8 -8 -17 0 -31 7 -13 7
-23 2 -27 -15 -8 -19 6 -19 58 0 34 4 47 14 47 8 0 14 -8 14 -18z m-3324 -120
c-12 -11 -18 7 -10 30 l8 23 4 -23 c2 -13 1 -26 -2 -30z m-1706 -3 c0 -11 -4
-17 -10 -14 -5 3 -10 13 -10 21 0 8 5 14 10 14 6 0 10 -9 10 -21z m3421 -52
c-8 -8 -11 -3 -11 19 1 25 2 27 11 11 8 -14 8 -22 0 -30z m369 8 c0 -8 -7 -15
-15 -15 -8 0 -15 7 -15 15 0 8 7 15 15 15 8 0 15 -7 15 -15z m-2134 -11 c-3
-9 -6 -25 -6 -37 0 -16 -3 -18 -11 -10 -14 14 -4 63 12 63 6 0 8 -7 5 -16z
m3350 -111 c-10 -26 -18 -8 -9 23 5 21 8 24 11 11 2 -10 1 -25 -2 -34z m-3386
8 c0 -13 -28 -22 -35 -11 -3 4 1 11 7 13 20 8 28 8 28 -2z m1797 -83 c-2 -13
-4 -5 -4 17 -1 22 1 32 4 23 2 -10 2 -28 0 -40z m1590 -60 c-2 -13 -4 -5 -4
17 -1 22 1 32 4 23 2 -10 2 -28 0 -40z m2643 31 c0 -18 -2 -19 -15 -9 -15 12
-12 30 6 30 5 0 9 -10 9 -21z m-6184 -196 c-11 -11 -17 4 -9 23 7 18 8 18 11
1 2 -10 1 -21 -2 -24z m6359 -14 c9 -29 -4 -38 -21 -15 -18 25 -18 36 0 36 8
0 18 -9 21 -21z m-6420 -99 c3 -5 2 -10 -3 -10 -5 0 -13 -10 -19 -22 -12 -28
-23 -10 -12 20 9 23 24 29 34 12z m-4408 -52 c-2 -13 -4 -5 -4 17 -1 22 1 32
4 23 2 -10 2 -28 0 -40z m6763 -49 c0 -5 -7 -9 -15 -9 -15 0 -20 12 -9 23 8 8
24 -1 24 -14z m-2521 -216 c-7 -10 -15 -20 -16 -22 -2 -2 -3 5 -3 17 0 14 6
22 16 22 14 0 15 -3 3 -17z m-3529 -63 c-7 -17 -16 -27 -21 -24 -5 3 -5 12 0
22 5 9 13 26 16 37 5 13 9 16 12 7 3 -7 0 -26 -7 -42z m10496 -10 c8 0 14 -9
14 -20 0 -20 0 -20 -20 0 -11 11 -19 28 -19 38 1 16 2 16 6 0 2 -10 11 -18 19
-18z m-7013 -45 c-3 -8 -9 -15 -14 -15 -5 0 -9 -9 -9 -21 0 -11 -4 -18 -9 -15
-11 7 -1 59 13 68 15 10 26 0 19 -17z m2810 -110 c1 -5 -6 -11 -15 -13 -11 -2
-18 3 -18 13 0 17 30 18 33 0z m-2957 -178 c-3 -14 -12 -27 -20 -30 -12 -5
-12 0 2 27 19 38 27 39 18 3z m-3326 -25 c0 -13 -12 -22 -22 -16 -10 6 -1 24
13 24 5 0 9 -4 9 -8z m3280 -39 c0 -5 -5 -15 -10 -23 -8 -12 -10 -11 -10 8 0
12 5 22 10 22 6 0 10 -3 10 -7z m3970 -21 c0 -5 -7 -17 -15 -28 -14 -19 -14
-19 -15 2 0 11 3 24 7 27 9 10 23 9 23 -1z m-4380 -92 c12 -8 11 -10 -7 -10
-13 0 -23 5 -23 10 0 13 11 13 30 0z m4237 -82 c-2 -13 -4 -5 -4 17 -1 22 1
32 4 23 2 -10 2 -28 0 -40z m138 -195 c-13 -35 -23 5 -22 89 0 133 21 152 25
23 1 -54 0 -105 -3 -112z m3765 145 c0 -13 -32 -6 -37 9 -3 7 3 9 16 6 12 -3
21 -10 21 -15z m-3765 -235 c-8 -21 -8 -27 1 -66 8 -34 -16 -71 -27 -40 -3 10
-3 28 2 40 5 13 6 30 3 38 -8 19 2 45 17 45 7 0 8 -7 4 -17z m-1605 -75 c0
-19 -2 -20 -10 -8 -13 19 -13 30 0 30 6 0 10 -10 10 -22z m5716 -118 c8 0 14
-7 14 -16 0 -26 -35 -12 -37 16 -1 14 0 19 3 13 3 -7 12 -13 20 -13z m-4129
-190 c0 -55 -4 -100 -8 -100 -5 0 -9 45 -9 100 0 55 4 100 8 100 5 0 9 -45 9
-100z m-68 -667 c12 -44 14 -74 5 -98 -11 -27 -32 34 -32 89 0 56 13 60 27 9z
m-51 -399 c0 -18 -3 -22 -9 -13 -11 18 -11 39 0 39 5 0 9 -12 9 -26z m2 -60
c0 -14 -4 -23 -10 -19 -5 3 -10 15 -10 26 0 10 5 19 10 19 6 0 10 -12 10 -26z
m-51 -412 c0 -15 -4 -36 -9 -47 -6 -14 -9 -6 -8 32 1 29 5 50 10 47 4 -3 8
-17 7 -32z m-9 -80 c0 -4 -5 -13 -11 -19 -8 -8 -7 -17 2 -32 11 -16 11 -23 1
-33 -6 -6 -12 -20 -12 -30 0 -10 -4 -18 -9 -18 -10 0 -7 85 4 118 7 21 25 31
25 14z m-63 -299 c-4 -17 -4 -17 -12 0 -4 9 -4 25 0 35 8 16 8 16 12 0 3 -10
3 -26 0 -35z m-115 -339 c-3 -26 -7 -33 -13 -22 -9 15 -1 58 10 58 4 0 5 -16
3 -36z m-42 -134 c-6 -10 -10 -23 -9 -27 1 -4 -3 -19 -9 -33 -11 -25 -11 -25
-11 8 -1 32 17 72 32 72 4 0 3 -9 -3 -20z m-80 -294 c0 -14 -7 -31 -15 -40 -8
-8 -15 -23 -16 -33 0 -11 -3 -13 -6 -5 -3 7 2 28 11 46 9 19 16 39 16 45 0 6
2 11 5 11 3 0 5 -11 5 -24z m-124 -384 c-11 -10 -14 3 -7 38 l6 35 3 -33 c2
-19 1 -36 -2 -40z m-116 -187 c0 -14 -4 -25 -10 -25 -11 0 -14 33 -3 43 11 11
13 8 13 -18z m-4597 -304 c4 -17 3 -17 -27 -3 -43 21 -43 22 -9 22 21 0 32 -6
36 -19z m147 -91 c0 -5 11 -10 24 -10 14 0 28 -5 32 -11 5 -8 -6 -9 -37 -4
-51 8 -53 10 -44 24 8 14 25 14 25 1z m1870 -30 c-19 -11 -43 -19 -52 -20 -17
0 -17 1 -1 20 12 13 29 20 53 20 l35 -1 -35 -19z m-1610 -50 c13 -9 13 -11 0
-19 -9 -7 -19 -6 -29 2 -8 7 -22 11 -32 9 -10 -2 -27 1 -36 7 -14 8 -7 10 32
11 28 0 57 -5 65 -10z m1411 -7 c-13 -9 -43 -18 -67 -21 -39 -4 -44 -2 -44 15
0 18 7 20 67 21 64 1 66 1 44 -15z m-161 -43 c0 -5 -9 -10 -21 -10 -11 0 -17
5 -14 10 3 6 13 10 21 10 8 0 14 -4 14 -10z m-132 -37 c-10 -2 -28 -2 -40 0
-13 2 -5 4 17 4 22 1 32 -1 23 -4z m2708 -30 c-11 -11 -19 6 -11 24 8 17 8 17
12 0 3 -10 2 -21 -1 -24z m-2850 -5 c-51 -11 -72 -4 -26 9 19 5 42 7 50 4 9
-3 -1 -8 -24 -13z m-449 -1 c-8 -25 -34 -30 -81 -16 -25 7 -46 16 -46 20 0 4
29 7 65 7 41 0 64 -5 62 -11z m3243 -72 c0 -3 -9 -14 -20 -25 -19 -19 -20 -19
-20 -2 0 10 3 22 7 25 7 8 33 9 33 2z m-330 -368 c0 -2 -9 -12 -20 -22 -19
-18 -20 -17 -20 3 0 15 6 22 20 22 11 0 20 -2 20 -3z m-190 -172 c-7 -8 -17
-15 -23 -15 -5 0 -2 9 8 20 21 23 35 19 15 -5z m-1682 -784 c10 -6 8 -10 -8
-14 -30 -8 -57 2 -38 14 17 11 29 11 46 0z m-1304 -13 c-7 -11 -62 -10 -69 2
-4 6 10 9 34 8 22 -1 38 -5 35 -10z m1064 5 c-10 -2 -28 -2 -40 0 -13 2 -5 4
17 4 22 1 32 -1 23 -4z"/>
<path d="M7118 20853 c-2 -5 -1 -62 2 -128 l6 -120 4 123 c4 107 0 152 -12
125z"/>
<path d="M7089 20583 c-4 -54 0 -616 5 -620 8 -8 7 -19 9 330 1 163 -1 297 -5
297 -5 0 -8 -3 -9 -7z"/>
<path d="M1020 20154 c0 -9 5 -14 12 -12 18 6 21 28 4 28 -9 0 -16 -7 -16 -16z"/>
<path d="M7058 19927 c-3 -11 -3 -507 1 -597 1 -27 4 -31 11 -20 12 19 13 617
1 624 -5 3 -11 0 -13 -7z"/>
<path d="M696 19843 c-4 -14 -1 -402 3 -436 1 -5 6 -5 11 -2 13 8 14 455 1
455 -5 0 -12 -8 -15 -17z"/>
<path d="M674 18470 c0 -173 2 -244 3 -157 2 86 2 228 0 315 -1 86 -3 15 -3
-158z"/>
<path d="M638 18123 c-2 -5 -1 -141 2 -303 l5 -295 3 287 c1 157 5 293 8 302
6 15 -12 24 -18 9z"/>
<path d="M609 17498 c-1 -13 -1 -519 0 -571 1 -16 5 -26 10 -22 14 8 14 605 1
605 -5 0 -10 -6 -11 -12z"/>
<path d="M584 15960 c0 -168 2 -236 3 -152 2 83 2 221 0 305 -1 83 -3 15 -3
-153z"/>
<path d="M6944 15755 c0 -170 2 -242 3 -158 2 83 2 223 0 310 -1 87 -3 19 -3
-152z"/>
<path d="M550 15635 c0 -3 -1 -124 -1 -270 0 -146 1 -284 1 -307 0 -23 3 -38
7 -34 11 10 12 616 2 616 -5 0 -9 -2 -9 -5z"/>
<path d="M6914 15095 c0 -170 2 -242 3 -158 2 83 2 223 0 310 -1 87 -3 19 -3
-152z"/>
<path d="M515 14978 c-10 -27 0 -593 10 -591 14 4 19 603 5 603 -6 0 -13 -6
-15 -12z"/>
<path d="M6880 14455 c0 -175 2 -316 5 -314 6 7 7 620 1 627 -3 3 -6 -138 -6
-313z"/>
<path d="M494 13430 c0 -168 2 -258 5 -200 3 58 4 195 1 305 -5 181 -6 170 -6
-105z"/>
<path d="M6854 13255 c0 -126 2 -177 3 -112 2 65 2 168 0 230 -1 62 -3 9 -3
-118z"/>
<path d="M460 13115 c-1 -7 -1 -524 0 -571 0 -20 4 -33 10 -29 12 8 12 605 -1
605 -5 0 -9 -2 -9 -5z"/>
<path d="M6852 12930 c0 -19 2 -27 5 -17 2 9 2 25 0 35 -3 9 -5 1 -5 -18z"/>
<path d="M6818 12843 c-2 -5 -1 -150 2 -323 l5 -315 5 318 c4 277 2 352 -12
320z"/>
<path d="M6763 11240 c0 -25 2 -35 4 -22 2 12 2 32 0 45 -2 12 -4 2 -4 -23z"/>
<path d="M3202 8386 c-12 -14 -18 -27 -13 -30 5 -4 13 0 18 7 4 7 16 17 26 20
10 4 15 11 12 17 -9 15 -18 12 -43 -14z"/>
<path d="M3125 8309 c-4 -6 -5 -13 -2 -16 7 -7 27 6 27 18 0 12 -17 12 -25 -2z"/>
<path d="M3051 8235 c-13 -14 -21 -28 -18 -32 7 -6 57 37 57 50 0 14 -15 7
-39 -18z"/>
<path d="M2940 8155 c0 -17 18 -19 38 -6 11 7 10 10 -3 15 -26 10 -35 7 -35
-9z"/>
<path d="M2890 7813 c0 -190 4 -283 10 -273 13 21 13 560 0 560 -6 0 -10 -102
-10 -287z"/>
<path d="M2858 7508 c-3 -12 -2 -527 2 -593 1 -26 3 -27 10 -10 12 27 13 615
1 615 -5 0 -11 -6 -13 -12z"/>
<path d="M3190 6968 c0 -7 4 -19 9 -27 11 -17 23 1 15 23 -7 19 -24 21 -24 4z"/>
<path d="M2861 6761 c-1 -27 2 -32 11 -23 8 8 8 17 0 34 -10 22 -11 21 -11
-11z"/>
</g>
</svg>
